<svg xmlns="http://www.w3.org/2000/svg" xmlns:xlink="http://www.w3.org/1999/xlink" width="16" height="16" viewBox="0 0 16 16" fill="none"><path    stroke="rgba(29, 33, 41, 1.00)" stroke-width="1.3333333333333333" stroke-linejoin="round" stroke-linecap="round"  d="M6.33325 3.33334L6.33325 2.33334C6.33325 1.96515 6.63172 1.66667 6.99992 1.66667L13.6666 1.66667C14.0348 1.66667 14.3333 1.96515 14.3333 2.33334L14.3333 9.66667C14.3333 10.0349 14.0348 10.3333 13.6666 10.3333L12.3333 10.3333"></path><path   fill="rgba(29, 33, 41, 1.00)"  d="M2.33341 5.33333L9.00008 5.33333C9.73646 5.33333 10.3334 5.93029 10.3334 6.66667L10.3334 13.3333C10.3334 14.0697 9.73646 14.6667 9.00008 14.6667L2.33341 14.6667C1.59704 14.6667 1.00008 14.0697 1.00008 13.3333L1.00008 6.66667C1.00008 5.93029 1.59704 5.33333 2.33341 5.33333ZM2.33341 6.66667C2.33341 6.66667 2.33341 6.66667 2.33341 6.66667L2.33341 13.3333C2.33341 13.3333 2.33342 13.3333 2.33341 13.3333L9.00008 13.3333C9.00008 13.3333 9.00008 13.3333 9.00008 13.3333L9.00008 6.66667C9.00008 6.66667 9.00008 6.66667 9.00008 6.66667L2.33341 6.66667Z"></path><path    stroke="rgba(29, 33, 41, 1.00)" stroke-width="1.3333333333333333" stroke-linejoin="round" stroke-linecap="round"  d="M5.66675 8.33333L5.66675 11.6667"></path><path    stroke="rgba(29, 33, 41, 1.00)" stroke-width="1.3333333333333333" stroke-linejoin="round" stroke-linecap="round"  d="M4 10L7.33333 10"></path></svg>