<svg xmlns="http://www.w3.org/2000/svg" xmlns:xlink="http://www.w3.org/1999/xlink" width="16" height="16" viewBox="0 0 16 16" fill="none"><path d="M2 3C2 2.44772 2.44772 2 3 2L11.4271 2L14 4.40217L14 13C14 13.5523 13.5523 14 13 14L3 14C2.44772 14 2 13.5523 2 13L2 3Z" stroke="rgba(29, 33, 41, 1.00)" stroke-width="1.3333333333333333" stroke-linejoin="round"  ></path><path d="M8.00285 2L8.00008 4.46153C8.00008 4.57483 7.85085 4.66667 7.66675 4.66667L5.00008 4.66667C4.81598 4.66667 4.66675 4.57483 4.66675 4.46153L4.66675 2L8.00285 2Z" stroke="rgba(29, 33, 41, 1.00)" stroke-width="1.3333333333333333" stroke-linejoin="round"  ></path><path    stroke="rgba(29, 33, 41, 1.00)" stroke-width="1.3333333333333333" stroke-linejoin="round" stroke-linecap="round"  d="M3 2L11.4271 2"></path><path    stroke="rgba(29, 33, 41, 1.00)" stroke-width="1.3333333333333333" stroke-linejoin="round" stroke-linecap="round"  d="M4.66675 8.66667L11.3334 8.66667"></path><path    stroke="rgba(29, 33, 41, 1.00)" stroke-width="1.3333333333333333" stroke-linejoin="round" stroke-linecap="round"  d="M4.66675 11.3333L8.00285 11.3333"></path></svg>